<?xml version="1.0" encoding="UTF-8" standalone="no"?>
<!-- Created with Inkscape (http://www.inkscape.org/) -->

<svg
   xmlns:dc="http://purl.org/dc/elements/1.1/"
   xmlns:cc="http://creativecommons.org/ns#"
   xmlns:rdf="http://www.w3.org/1999/02/22-rdf-syntax-ns#"
   xmlns:svg="http://www.w3.org/2000/svg"
   xmlns="http://www.w3.org/2000/svg"
   xmlns:sodipodi="http://sodipodi.sourceforge.net/DTD/sodipodi-0.dtd"
   xmlns:inkscape="http://www.inkscape.org/namespaces/inkscape"
   id="svg4922"
   version="1.1"
   inkscape:version="0.91 r13725"
   xml:space="preserve"
   width="512"
   height="512"
   viewBox="0 0 511.99999 511.99999"
   sodipodi:docname="AMPLE-icon.svg"><metadata
     id="metadata4928"><rdf:RDF><cc:Work
         rdf:about=""><dc:format>image/svg+xml</dc:format><dc:type
           rdf:resource="http://purl.org/dc/dcmitype/StillImage" /><dc:title></dc:title></cc:Work></rdf:RDF></metadata><defs
     id="defs4926"><clipPath
       clipPathUnits="userSpaceOnUse"
       id="clipPath4938"><path
         d="M 75.918,56.608 C 66.039,55.055 56.161,53.502 46.283,54.594 l 0,0 0,1.997 c -1.616,-1.068 -3.232,-2.066 -4.848,-2.982 l 0,0 C 39.818,52.691 38.2,51.854 36.582,51.111 l 0,0 c 1.618,-1.75 3.236,-3.407 4.853,-4.981 l 0,0 c 1.616,-1.583 3.232,-3.083 4.848,-4.512 l 0,0 0,2.011 c 9.878,-1.091 19.756,0.461 29.635,2.014 l 0,0 c 13.112,2.061 26.225,4.123 39.338,0 l 0,0 0,10.965 c -5.542,1.742 -11.085,2.38 -16.627,2.38 l 0,0 c -7.571,0 -15.14,-1.19 -22.711,-2.38"
         id="path4940"
         inkscape:connector-curvature="0" /></clipPath><linearGradient
       x1="0"
       y1="0"
       x2="1"
       y2="0"
       gradientUnits="userSpaceOnUse"
       gradientTransform="matrix(78.67334,0,0,-78.67334,36.582031,50.303223)"
       spreadMethod="pad"
       id="linearGradient4946"><stop
         style="stop-opacity:1;stop-color:#007ac0"
         offset="0"
         id="stop4948" /><stop
         style="stop-opacity:1;stop-color:#5a4b96"
         offset="0.81064868"
         id="stop4950" /><stop
         style="stop-opacity:1;stop-color:#5a4b96"
         offset="1"
         id="stop4952" /></linearGradient><clipPath
       clipPathUnits="userSpaceOnUse"
       id="clipPath4960"><path
         d="m 105.551,73.159 c -9.877,1.09 -19.755,-0.462 -29.632,-2.015 l 0,0 c -13.112,-2.061 -26.225,-4.122 -39.337,0 l 0,0 0,-10.953 c 13.112,-4.122 26.225,-2.061 39.337,0 l 0,0 c 9.877,1.553 19.755,3.105 29.632,2.015 l 0,0 0,-2.006 c 1.616,1.068 3.232,2.065 4.847,2.98 l 0,0 c 1.62,0.916 3.239,1.75 4.858,2.491 l 0,0 c -1.619,1.755 -3.238,3.416 -4.858,4.994 l 0,0 c -1.615,1.575 -3.231,3.069 -4.847,4.491 l 0,0 0,-1.997 z"
         id="path4962"
         inkscape:connector-curvature="0" /></clipPath><linearGradient
       x1="0"
       y1="0"
       x2="1"
       y2="0"
       gradientUnits="userSpaceOnUse"
       gradientTransform="matrix(78.67334,0,0,-78.67334,36.582031,66.483887)"
       spreadMethod="pad"
       id="linearGradient4968"><stop
         style="stop-opacity:1;stop-color:#007ac0"
         offset="0"
         id="stop4970" /><stop
         style="stop-opacity:1;stop-color:#5a4b96"
         offset="0.81064868"
         id="stop4972" /><stop
         style="stop-opacity:1;stop-color:#5a4b96"
         offset="1"
         id="stop4974" /></linearGradient><clipPath
       clipPathUnits="userSpaceOnUse"
       id="clipPath4982"><path
         d="M 75.918,85.973 C 66.039,84.419 56.161,82.867 46.283,83.958 l 0,0 0,2.005 c -1.616,-1.07 -3.232,-2.067 -4.848,-2.982 l 0,0 C 39.818,82.065 38.2,81.232 36.582,80.493 l 0,0 c 1.618,-1.757 3.236,-3.419 4.853,-4.999 l 0,0 c 1.616,-1.576 3.232,-3.071 4.848,-4.495 l 0,0 0,2.007 c 9.878,-1.091 19.756,0.461 29.635,2.014 l 0,0 c 13.112,2.061 26.225,4.122 39.338,0 l 0,0 0,10.953 c -5.542,1.741 -11.085,2.379 -16.627,2.379 l 0,0 c -7.571,10e-4 -15.14,-1.189 -22.711,-2.379"
         id="path4984"
         inkscape:connector-curvature="0" /></clipPath><linearGradient
       x1="0"
       y1="0"
       x2="1"
       y2="0"
       gradientUnits="userSpaceOnUse"
       gradientTransform="matrix(78.67334,0,0,-78.67334,36.582031,79.67627)"
       spreadMethod="pad"
       id="linearGradient4990"><stop
         style="stop-opacity:1;stop-color:#007ac0"
         offset="0"
         id="stop4992" /><stop
         style="stop-opacity:1;stop-color:#5a4b96"
         offset="0.81064868"
         id="stop4994" /><stop
         style="stop-opacity:1;stop-color:#5a4b96"
         offset="1"
         id="stop4996" /></linearGradient><clipPath
       clipPathUnits="userSpaceOnUse"
       id="clipPath5004"><path
         d="m 105.551,102.527 c -9.877,1.09 -19.755,-0.463 -29.632,-2.015 l 0,0 c -13.112,-2.06 -26.225,-4.121 -39.337,0.001 l 0,0 0,-10.953 c 13.112,-4.122 26.225,-2.061 39.337,-0.001 l 0,0 c 9.877,1.552 19.755,3.105 29.632,2.015 l 0,0 0,-2.007 c 1.616,1.071 3.232,2.072 4.847,2.989 l 0,0 c 1.62,0.914 3.239,1.746 4.858,2.483 l 0,0 c -1.619,1.758 -3.238,3.421 -4.858,5.003 l 0,0 c -1.615,1.575 -3.231,3.069 -4.847,4.491 l 0,0 0,-2.006 z"
         id="path5006"
         inkscape:connector-curvature="0" /></clipPath><linearGradient
       x1="0"
       y1="0"
       x2="1"
       y2="0"
       gradientUnits="userSpaceOnUse"
       gradientTransform="matrix(78.67334,0,0,-78.67334,36.582031,95.856445)"
       spreadMethod="pad"
       id="linearGradient5012"><stop
         style="stop-opacity:1;stop-color:#007ac0"
         offset="0"
         id="stop5014" /><stop
         style="stop-opacity:1;stop-color:#5a4b96"
         offset="0.81064868"
         id="stop5016" /><stop
         style="stop-opacity:1;stop-color:#5a4b96"
         offset="1"
         id="stop5018" /></linearGradient><clipPath
       clipPathUnits="userSpaceOnUse"
       id="clipPath5026"><path
         d="m 0,151.333 152.377,0 L 152.377,0 0,0 0,151.333 Z"
         id="path5028"
         inkscape:connector-curvature="0" /></clipPath></defs><sodipodi:namedview
     pagecolor="#ffffff"
     bordercolor="#666666"
     borderopacity="1"
     objecttolerance="10"
     gridtolerance="10"
     guidetolerance="10"
     inkscape:pageopacity="0"
     inkscape:pageshadow="2"
     inkscape:window-width="2560"
     inkscape:window-height="1380"
     id="namedview4924"
     showgrid="false"
     inkscape:zoom="1"
     inkscape:cx="245.23563"
     inkscape:cy="114.10157"
     inkscape:window-x="0"
     inkscape:window-y="31"
     inkscape:window-maximized="1"
     inkscape:current-layer="g4930" /><g
     id="g4930"
     inkscape:groupmode="layer"
     inkscape:label="AMPLE-icon"
     transform="matrix(1.25,0,0,-1.25,0,512.00001)"><g
       id="g4934"
       transform="matrix(4.0964976,0,0,4.0964976,-114.07607,-91.214846)"><g
         id="g4936"
         clip-path="url(#clipPath4938)"><g
           id="g4942"><g
             id="g4944"><path
               d="M 75.918,56.608 C 66.039,55.055 56.161,53.502 46.283,54.594 l 0,0 0,1.997 c -1.616,-1.068 -3.232,-2.066 -4.848,-2.982 l 0,0 C 39.818,52.691 38.2,51.854 36.582,51.111 l 0,0 c 1.618,-1.75 3.236,-3.407 4.853,-4.981 l 0,0 c 1.616,-1.583 3.232,-3.083 4.848,-4.512 l 0,0 0,2.011 c 9.878,-1.091 19.756,0.461 29.635,2.014 l 0,0 c 13.112,2.061 26.225,4.123 39.338,0 l 0,0 0,10.965 c -5.542,1.742 -11.085,2.38 -16.627,2.38 l 0,0 c -7.571,0 -15.14,-1.19 -22.711,-2.38"
               style="fill:url(#linearGradient4946);stroke:none"
               id="path4954"
               inkscape:connector-curvature="0" /></g></g></g></g><g
       id="g4956"
       transform="matrix(4.0964976,0,0,4.0964976,-114.07607,-91.214846)"><g
         id="g4958"
         clip-path="url(#clipPath4960)"><g
           id="g4964"><g
             id="g4966"><path
               d="m 105.551,73.159 c -9.877,1.09 -19.755,-0.462 -29.632,-2.015 l 0,0 c -13.112,-2.061 -26.225,-4.122 -39.337,0 l 0,0 0,-10.953 c 13.112,-4.122 26.225,-2.061 39.337,0 l 0,0 c 9.877,1.553 19.755,3.105 29.632,2.015 l 0,0 0,-2.006 c 1.616,1.068 3.232,2.065 4.847,2.98 l 0,0 c 1.62,0.916 3.239,1.75 4.858,2.491 l 0,0 c -1.619,1.755 -3.238,3.416 -4.858,4.994 l 0,0 c -1.615,1.575 -3.231,3.069 -4.847,4.491 l 0,0 0,-1.997 z"
               style="fill:url(#linearGradient4968);stroke:none"
               id="path4976"
               inkscape:connector-curvature="0" /></g></g></g></g><g
       id="g4978"
       transform="matrix(4.0964976,0,0,4.0964976,-114.07607,-91.214846)"><g
         id="g4980"
         clip-path="url(#clipPath4982)"><g
           id="g4986"><g
             id="g4988"><path
               d="M 75.918,85.973 C 66.039,84.419 56.161,82.867 46.283,83.958 l 0,0 0,2.005 c -1.616,-1.07 -3.232,-2.067 -4.848,-2.982 l 0,0 C 39.818,82.065 38.2,81.232 36.582,80.493 l 0,0 c 1.618,-1.757 3.236,-3.419 4.853,-4.999 l 0,0 c 1.616,-1.576 3.232,-3.071 4.848,-4.495 l 0,0 0,2.007 c 9.878,-1.091 19.756,0.461 29.635,2.014 l 0,0 c 13.112,2.061 26.225,4.122 39.338,0 l 0,0 0,10.953 c -5.542,1.741 -11.085,2.379 -16.627,2.379 l 0,0 c -7.571,10e-4 -15.14,-1.189 -22.711,-2.379"
               style="fill:url(#linearGradient4990);stroke:none"
               id="path4998"
               inkscape:connector-curvature="0" /></g></g></g></g><g
       id="g5000"
       transform="matrix(4.0964976,0,0,4.0964976,-114.07607,-91.214846)"><g
         id="g5002"
         clip-path="url(#clipPath5004)"><g
           id="g5008"><g
             id="g5010"><path
               d="m 105.551,102.527 c -9.877,1.09 -19.755,-0.463 -29.632,-2.015 l 0,0 c -13.112,-2.06 -26.225,-4.121 -39.337,0.001 l 0,0 0,-10.953 c 13.112,-4.122 26.225,-2.061 39.337,-0.001 l 0,0 c 9.877,1.552 19.755,3.105 29.632,2.015 l 0,0 0,-2.007 c 1.616,1.071 3.232,2.072 4.847,2.989 l 0,0 c 1.62,0.914 3.239,1.746 4.858,2.483 l 0,0 c -1.619,1.758 -3.238,3.421 -4.858,5.003 l 0,0 c -1.615,1.575 -3.231,3.069 -4.847,4.491 l 0,0 0,-2.006 z"
               style="fill:url(#linearGradient5012);stroke:none"
               id="path5020"
               inkscape:connector-curvature="0" /></g></g></g></g><g
       id="g5022"
       transform="matrix(4.0964976,0,0,4.0964976,-114.07607,-91.214846)"><g
         id="g5024"
         clip-path="url(#clipPath5026)"><g
           id="g5030"
           transform="translate(62.5361,47.1523)"><path
             d="m 0,0 c 0,0 0.256,-1.831 2.838,-2.767 2.581,-0.912 6.994,-1.985 12.551,-2.313 5.563,-0.322 13.576,-0.915 17.83,-2.296 4.266,-1.377 4.29,-1.562 5.441,-2.354 1.138,-0.799 1.359,-2.613 1.359,-2.613 l 0.895,-5.05 1.311,-7.357 c 0,0 -0.229,1.813 -1.371,2.611 -1.139,0.802 -1.172,0.985 -5.426,2.365 -4.263,1.371 -12.267,1.956 -17.845,2.293 -5.563,0.327 -9.963,1.394 -12.545,2.325 -2.581,0.918 -2.841,2.754 -2.841,2.754 L 0,0 Z"
             style="fill:#3a3b3d;fill-opacity:1;fill-rule:nonzero;stroke:none"
             id="path5032"
             inkscape:connector-curvature="0" /></g><g
           id="g5034"
           transform="translate(62.5361,47.1523)"><path
             d="m 0,0 c 0,0 0.256,-1.831 2.838,-2.767 2.581,-0.912 6.994,-1.985 12.551,-2.313 5.563,-0.322 13.576,-0.915 17.83,-2.296 4.266,-1.377 4.29,-1.562 5.441,-2.354 1.138,-0.799 1.359,-2.613 1.359,-2.613 l 0.895,-5.05 1.311,-7.357 c 0,0 -0.229,1.813 -1.371,2.611 -1.139,0.802 -1.172,0.985 -5.426,2.365 -4.263,1.371 -12.267,1.956 -17.845,2.293 -5.563,0.327 -9.963,1.394 -12.545,2.325 -2.581,0.918 -2.841,2.754 -2.841,2.754 L 0,0 Z"
             style="fill:none;stroke:#ffffff;stroke-width:2.03900003;stroke-linecap:butt;stroke-linejoin:miter;stroke-miterlimit:10;stroke-dasharray:none;stroke-opacity:1"
             id="path5036"
             inkscape:connector-curvature="0" /></g><g
           id="g5038"
           transform="translate(49.3115,121.7715)"><path
             d="m 0,0 c 0,0 0.253,-1.849 2.829,-2.767 2.585,-0.924 7,-1.982 12.554,-2.31 5.572,-0.337 13.576,-0.922 17.827,-2.302 4.269,-1.377 4.311,-1.562 5.45,-2.358 1.132,-0.793 1.365,-2.612 1.365,-2.612 l 0.894,-5.044 1.306,-7.363 c 0,0 -0.226,1.807 -1.371,2.617 -1.139,0.79 -1.175,0.975 -5.437,2.362 -4.258,1.371 -12.253,1.961 -17.834,2.283 -5.563,0.334 -9.96,1.404 -12.551,2.331 -2.57,0.919 -2.838,2.755 -2.838,2.755 L 0,0 Z"
             style="fill:#3a3b3d;fill-opacity:1;fill-rule:nonzero;stroke:none"
             id="path5040"
             inkscape:connector-curvature="0" /></g><g
           id="g5042"
           transform="translate(49.3115,121.7715)"><path
             d="m 0,0 c 0,0 0.253,-1.849 2.829,-2.767 2.585,-0.924 7,-1.982 12.554,-2.31 5.572,-0.337 13.576,-0.922 17.827,-2.302 4.269,-1.377 4.311,-1.562 5.45,-2.358 1.132,-0.793 1.365,-2.612 1.365,-2.612 l 0.894,-5.044 1.306,-7.363 c 0,0 -0.226,1.807 -1.371,2.617 -1.139,0.79 -1.175,0.975 -5.437,2.362 -4.258,1.371 -12.253,1.961 -17.834,2.283 -5.563,0.334 -9.96,1.404 -12.551,2.331 -2.57,0.919 -2.838,2.755 -2.838,2.755 L 0,0 Z"
             style="fill:none;stroke:#ffffff;stroke-width:2.03900003;stroke-linecap:butt;stroke-linejoin:miter;stroke-miterlimit:10;stroke-dasharray:none;stroke-opacity:1"
             id="path5044"
             inkscape:connector-curvature="0" /></g><g
           id="g5046"
           transform="translate(55.9297,84.3662)"><path
             d="m 0,0 c 0,0 0.262,-1.833 2.844,-2.764 2.582,-0.918 6.994,-1.985 12.557,-2.313 5.569,-0.328 13.576,-0.918 17.827,-2.295 4.263,-1.384 4.293,-1.557 5.438,-2.358 1.145,-0.805 1.371,-2.615 1.371,-2.615 l 0.895,-5.048 1.299,-7.36 c 0,0 -0.214,1.818 -1.365,2.617 -1.145,0.803 -1.175,0.985 -5.426,2.365 -4.263,1.372 -12.27,1.959 -17.845,2.287 -5.563,0.328 -9.972,1.413 -12.557,2.325 -2.576,0.921 -2.832,2.758 -2.832,2.758 L 0,0 Z"
             style="fill:#3a3b3d;fill-opacity:1;fill-rule:nonzero;stroke:none"
             id="path5048"
             inkscape:connector-curvature="0" /></g><g
           id="g5050"
           transform="translate(55.9297,84.3662)"><path
             d="m 0,0 c 0,0 0.262,-1.833 2.844,-2.764 2.582,-0.918 6.994,-1.985 12.557,-2.313 5.569,-0.328 13.576,-0.918 17.827,-2.295 4.263,-1.384 4.293,-1.557 5.438,-2.358 1.145,-0.805 1.371,-2.615 1.371,-2.615 l 0.895,-5.048 1.299,-7.36 c 0,0 -0.214,1.818 -1.365,2.617 -1.145,0.803 -1.175,0.985 -5.426,2.365 -4.263,1.372 -12.27,1.959 -17.845,2.287 -5.563,0.328 -9.972,1.413 -12.557,2.325 -2.576,0.921 -2.832,2.758 -2.832,2.758 L 0,0 Z"
             style="fill:none;stroke:#ffffff;stroke-width:2.03900003;stroke-linecap:butt;stroke-linejoin:miter;stroke-miterlimit:10;stroke-dasharray:none;stroke-opacity:1"
             id="path5052"
             inkscape:connector-curvature="0" /></g><g
           id="g5054"
           transform="translate(58.0044,72.7305)"><path
             d="m 0,0 c 0,0 -0.394,1.807 1.714,3.568 2.102,1.747 5.882,4.273 10.986,6.496 5.128,2.212 12.438,5.522 15.961,8.283 3.527,2.754 3.482,2.936 4.287,4.084 0.805,1.135 0.394,2.922 0.394,2.922 l -0.898,5.052 -1.314,7.355 c 0,0 0.423,-1.777 -0.373,-2.919 C 29.955,33.693 29.985,33.509 26.461,30.748 22.946,27.996 15.619,24.685 10.506,22.46 5.396,20.248 1.622,17.727 -0.489,15.974 -2.593,14.215 -2.203,12.401 -2.203,12.401 L 0,0 Z"
             style="fill:#3a3b3d;fill-opacity:1;fill-rule:nonzero;stroke:none"
             id="path5056"
             inkscape:connector-curvature="0" /></g><g
           id="g5058"
           transform="translate(58.0044,72.7305)"><path
             d="m 0,0 c 0,0 -0.394,1.807 1.714,3.568 2.102,1.747 5.882,4.273 10.986,6.496 5.128,2.212 12.438,5.522 15.961,8.283 3.527,2.754 3.482,2.936 4.287,4.084 0.805,1.135 0.394,2.922 0.394,2.922 l -0.898,5.052 -1.314,7.355 c 0,0 0.423,-1.777 -0.373,-2.919 C 29.955,33.693 29.985,33.509 26.461,30.748 22.946,27.996 15.619,24.685 10.506,22.46 5.396,20.248 1.622,17.727 -0.489,15.974 -2.593,14.215 -2.203,12.401 -2.203,12.401 L 0,0 Z"
             style="fill:none;stroke:#ffffff;stroke-width:2.03900003;stroke-linecap:butt;stroke-linejoin:miter;stroke-miterlimit:10;stroke-dasharray:none;stroke-opacity:1"
             id="path5060"
             inkscape:connector-curvature="0" /></g><g
           id="g5062"
           transform="translate(64.6587,35.1738)"><path
             d="m 0,0 c 0,0 -0.394,1.824 1.711,3.571 2.111,1.756 5.891,4.276 11,6.499 5.116,2.212 12.426,5.528 15.95,8.273 3.529,2.769 3.488,2.949 4.305,4.085 0.793,1.159 0.375,2.932 0.375,2.932 l -0.888,5.054 -1.318,7.346 c 0,0 0.418,-1.772 -0.375,-2.916 C 29.961,33.699 29.987,33.515 26.467,30.748 22.949,28.005 15.621,24.705 10.505,22.472 5.393,20.242 1.627,17.732 -0.489,15.973 -2.588,14.226 -2.197,12.396 -2.197,12.396 L 0,0 Z"
             style="fill:#3a3b3d;fill-opacity:1;fill-rule:nonzero;stroke:none"
             id="path5064"
             inkscape:connector-curvature="0" /></g><g
           id="g5066"
           transform="translate(64.6587,35.1738)"><path
             d="m 0,0 c 0,0 -0.394,1.824 1.711,3.571 2.111,1.756 5.891,4.276 11,6.499 5.116,2.212 12.426,5.528 15.95,8.273 3.529,2.769 3.488,2.949 4.305,4.085 0.793,1.159 0.375,2.932 0.375,2.932 l -0.888,5.054 -1.318,7.346 c 0,0 0.418,-1.772 -0.375,-2.916 C 29.961,33.699 29.987,33.515 26.467,30.748 22.949,28.005 15.621,24.705 10.505,22.472 5.393,20.242 1.627,17.732 -0.489,15.973 -2.588,14.226 -2.197,12.396 -2.197,12.396 L 0,0 Z"
             style="fill:none;stroke:#ffffff;stroke-width:2.03900003;stroke-linecap:butt;stroke-linejoin:miter;stroke-miterlimit:10;stroke-dasharray:none;stroke-opacity:1"
             id="path5068"
             inkscape:connector-curvature="0" /></g></g></g></g></svg>